<?xml version="1.0" encoding="utf-8"?>
<!-- Generator: Adobe Illustrator 27.2.0, SVG Export Plug-In . SVG Version: 6.00 Build 0)  -->
<svg version="1.1" id="Layer_1" xmlns="http://www.w3.org/2000/svg" xmlns:xlink="http://www.w3.org/1999/xlink" x="0px" y="0px"
	 viewBox="0 0 612 792" style="enable-background:new 0 0 612 792;" xml:space="preserve">
<style type="text/css">
	.st0{fill:url(#SVGID_1_);}
	.st1{fill:url(#SVGID_00000075129639364793437480000003562027234657531319_);}
	.st2{fill:url(#SVGID_00000060021107514439847520000018204171099985516987_);}
</style>
<g>
	<path d="M163.6,407.4c0-0.5,0.4-0.9,0.9-0.9h26.7c0.5,0,0.9,0.4,0.9,0.9v1.1c0,0.5-0.4,0.9-0.9,0.9h-24.3v18.3h21.1
		c0.5,0,0.9,0.4,0.9,0.9v1.1c0,0.5-0.4,0.9-0.9,0.9h-21.1v19.7h24.3c0.5,0,0.9,0.4,0.9,0.9v1.1c0,0.5-0.4,0.9-0.9,0.9h-26.7
		c-0.5,0-0.9-0.4-0.9-0.9V407.4z"/>
	<path d="M203.3,407.4c0-0.5,0.4-0.9,0.9-0.9h1.5c0.4,0,0.8,0.4,0.8,0.9v42.9h21.2c0.8,0,0.9,0.4,0.9,0.9v1.2c0,0.5-0.4,0.7-0.9,0.7
		h-23.5c-0.5,0-0.9-0.4-0.9-0.9V407.4z"/>
	<path d="M235.9,407.4c0-0.5,0.4-0.9,0.9-0.9h26.7c0.5,0,0.9,0.4,0.9,0.9v1.1c0,0.5-0.4,0.9-0.9,0.9H239v18.3h21.1
		c0.5,0,0.9,0.4,0.9,0.9v1.1c0,0.5-0.4,0.9-0.9,0.9H239v19.7h24.3c0.5,0,0.9,0.4,0.9,0.9v1.1c0,0.5-0.4,0.9-0.9,0.9h-26.7
		c-0.5,0-0.9-0.4-0.9-0.9V407.4z"/>
	<path d="M296.1,405.9c6.8,0,11.8,2.3,16.1,6.2c0.3,0.3,0.4,0.9,0.1,1.2l-1.1,1.1c-0.4,0.4-0.7,0.3-1.1-0.1c-3.8-3.4-8.6-5.4-14-5.4
		c-11.6,0-20.7,9.5-20.7,21c0,11.4,9.1,20.9,20.7,20.9c5.7,0,10-2.3,14-5.6c0.4-0.3,0.8-0.3,1.1-0.1l1.1,1.1c0.3,0.3,0.3,0.8,0,1.1
		c-4.5,4.4-10.3,6.4-16.2,6.4c-13.3,0-24.1-10.5-24.1-23.9C272.1,416.6,282.8,405.9,296.1,405.9z"/>
	<path d="M330.2,409.4h-12.7c-0.7,0-0.9-0.4-0.9-1v-1c0-0.5,0.4-0.9,0.9-0.9h28.6c0.5,0,0.9,0.4,0.9,0.9v1.1c0,0.5-0.3,0.9-0.9,0.9
		h-12.8v42.8c0,0.5-0.4,0.9-1.1,0.9H331c-0.5,0-0.9-0.4-0.9-0.9V409.4z"/>
	<path d="M354.5,407.4c0-0.5,0.3-0.9,0.9-0.9h16.5c8.1,0,14.8,6.1,14.8,14.2c0,6.7-4.7,12.1-11,13.9l9.7,17.2
		c0.3,0.5,0.2,1.2-0.5,1.2h-2.1c-0.5,0-0.7-0.2-0.9-0.6l-9.6-17.4c-0.9,0.1-1.6,0.1-2.5,0.1h-12.2v17.1c0,0.5-0.4,0.9-1.1,0.9h-1.2
		c-0.5,0-0.9-0.4-0.9-0.9V407.4z M371.7,432.4c6.4,0,11.8-5,11.8-11.6c0-6.3-5.4-11.2-11.8-11.2h-14v22.7H371.7z"/>
	<path d="M397.7,407.4c0-0.5,0.4-0.9,0.9-0.9h1.5c0.5,0,0.9,0.4,0.9,0.9v44.8c0,0.5-0.5,0.9-0.9,0.9h-1.4c-0.5,0-0.9-0.4-0.9-0.9
		V407.4z"/>
	<path d="M435.7,405.9c6.8,0,11.8,2.3,16.1,6.2c0.3,0.3,0.4,0.9,0.1,1.2l-1.1,1.1c-0.4,0.4-0.7,0.3-1.1-0.1c-3.8-3.4-8.6-5.4-14-5.4
		c-11.6,0-20.7,9.5-20.7,21c0,11.4,9.1,20.9,20.7,20.9c5.7,0,10-2.3,14-5.6c0.4-0.3,0.8-0.3,1.1-0.1l1.1,1.1c0.3,0.3,0.3,0.8,0,1.1
		c-4.5,4.4-10.3,6.4-16.2,6.4c-13.3,0-24.1-10.5-24.1-23.9C411.7,416.6,422.4,405.9,435.7,405.9z"/>
	<path d="M188.4,465.6c8,0,13.9,2.5,19.3,7.4c0.7,0.6,0.7,1.6,0.1,2.2l-6.2,6.5c-0.6,0.6-1.4,0.6-2,0c-3-2.6-6.9-4.1-10.8-4.1
		c-9,0-15.6,7.5-15.6,16.4c0,8.9,6.7,16.2,15.7,16.2c3.7,0,7.8-1.4,10.7-3.8c0.6-0.5,1.6-0.5,2.1,0.1l6.2,6.6
		c0.6,0.6,0.5,1.6-0.1,2.2c-5.4,5.3-12.3,7.7-19.4,7.7c-16,0-28.8-12.7-28.8-28.6C159.6,478.4,172.4,465.6,188.4,465.6z"/>
	<path d="M217.3,467.9c0-0.8,0.7-1.5,1.5-1.5h9.6c0.8,0,1.5,0.7,1.5,1.5v52.8c0,0.8-0.7,1.5-1.5,1.5h-9.6c-0.8,0-1.5-0.7-1.5-1.5
		V467.9z"/>
	<path d="M250.8,478.1h-11.4c-0.9,0-1.5-0.7-1.5-1.5v-8.7c0-0.8,0.6-1.5,1.5-1.5h35.4c0.9,0,1.5,0.7,1.5,1.5v8.7
		c0,0.8-0.6,1.5-1.5,1.5h-11.4v42.6c0,0.8-0.7,1.5-1.5,1.5h-9.6c-0.8,0-1.5-0.7-1.5-1.5V478.1z"/>
	<path d="M284.3,467.9c0-0.8,0.7-1.5,1.5-1.5h9.6c0.8,0,1.5,0.7,1.5,1.5v52.8c0,0.8-0.7,1.5-1.5,1.5h-9.6c-0.8,0-1.5-0.7-1.5-1.5
		V467.9z"/>
	<path d="M305.6,519.3l21.2-41v-0.2h-17.4c-0.8,0-1.5-0.7-1.5-1.5v-8.7c0-0.8,0.7-1.5,1.5-1.5h33.9c0.8,0,1.5,0.7,1.5,1.5v1
		l-20.5,41.4v0.2h17.4c0.9,0,1.5,0.7,1.5,1.5v8.7c0,0.8-0.6,1.5-1.5,1.5h-34.6c-0.8,0-1.5-0.7-1.5-1.5V519.3z"/>
	<path d="M353.9,467.9c0-0.8,0.6-1.5,1.5-1.5h33c0.9,0,1.5,0.7,1.5,1.5v8.7c0,0.8-0.6,1.5-1.5,1.5h-22.1v9.9h18.2
		c0.8,0,1.5,0.7,1.5,1.5v8.7c0,0.9-0.7,1.5-1.5,1.5h-18.2v10.8h22.1c0.9,0,1.5,0.7,1.5,1.5v8.7c0,0.8-0.6,1.5-1.5,1.5h-33
		c-0.9,0-1.5-0.7-1.5-1.5V467.9z"/>
	<path d="M400.6,467c0-0.8,0.7-1.4,1.5-1.4h2l31.8,30.6h0.1v-28.3c0-0.8,0.6-1.5,1.5-1.5h9.6c0.8,0,1.5,0.7,1.5,1.5v53.7
		c0,0.8-0.7,1.4-1.5,1.4h-1.3c-0.2,0-0.9-0.2-1-0.4l-31.5-31.7h-0.1v29.8c0,0.8-0.6,1.5-1.5,1.5h-9.5c-0.8,0-1.5-0.7-1.5-1.5
		L400.6,467z"/>
</g>
<g>
	<linearGradient id="SVGID_1_" gradientUnits="userSpaceOnUse" x1="263.3412" y1="326.8061" x2="348.6191" y2="326.8061">
		<stop  offset="0" style="stop-color:#F0B61B"/>
		<stop  offset="0.3646" style="stop-color:#EFB31C"/>
		<stop  offset="0.6314" style="stop-color:#EAAA1F"/>
		<stop  offset="0.8663" style="stop-color:#E39A24"/>
		<stop  offset="1" style="stop-color:#DD8D28"/>
	</linearGradient>
	<polygon class="st0" points="316.2,268 263.3,334 295.8,334 295.8,385.7 348.6,319.6 316.2,319.6 	"/>
	
		<linearGradient id="SVGID_00000067225900149480575990000014995499478961140415_" gradientUnits="userSpaceOnUse" x1="328.3094" y1="303.3011" x2="348.6191" y2="303.3011">
		<stop  offset="0" style="stop-color:#F0B61B"/>
		<stop  offset="0.3654" style="stop-color:#EFB31C"/>
		<stop  offset="0.6317" style="stop-color:#EAAA1F"/>
		<stop  offset="0.8659" style="stop-color:#E39A24"/>
		<stop  offset="1" style="stop-color:#DD8D28"/>
	</linearGradient>
	
		<rect x="328.3" y="298.6" style="fill:url(#SVGID_00000067225900149480575990000014995499478961140415_);" width="20.3" height="9.5"/>
	
		<linearGradient id="SVGID_00000016763855463688239590000011008811465939021476_" gradientUnits="userSpaceOnUse" x1="328.3094" y1="283.6702" x2="348.6191" y2="283.6702">
		<stop  offset="0" style="stop-color:#F0B61B"/>
		<stop  offset="0.3654" style="stop-color:#EFB31C"/>
		<stop  offset="0.6317" style="stop-color:#EAAA1F"/>
		<stop  offset="0.8659" style="stop-color:#E39A24"/>
		<stop  offset="1" style="stop-color:#DD8D28"/>
	</linearGradient>
	
		<rect x="328.3" y="278.9" style="fill:url(#SVGID_00000016763855463688239590000011008811465939021476_);" width="20.3" height="9.5"/>
</g>
</svg>
