<?xml version="1.0" encoding="UTF-8"?>
<svg xmlns="http://www.w3.org/2000/svg" xmlns:xlink="http://www.w3.org/1999/xlink" version="1.1" viewBox="0 0 800 800">
  <defs>
    <style>
      .cls-1 {
        fill: url(#linear-gradient-3);
      }

      .cls-2 {
        fill: url(#linear-gradient-2);
      }

      .cls-3 {
        fill: url(#linear-gradient);
      }
    </style>
    <linearGradient id="linear-gradient" x1="296.8" y1="576.7" x2="504.7" y2="576.7" gradientTransform="translate(0 792) scale(1 -1)" gradientUnits="userSpaceOnUse">
      <stop offset="0" stop-color="#f0b61b"/>
      <stop offset=".4" stop-color="#efb31c"/>
      <stop offset=".6" stop-color="#eaaa1f"/>
      <stop offset=".9" stop-color="#e39a24"/>
      <stop offset="1" stop-color="#dd8d28"/>
    </linearGradient>
    <linearGradient id="linear-gradient-2" x1="455.2" y1="634" x2="504.7" y2="634" gradientTransform="translate(0 792) scale(1 -1)" gradientUnits="userSpaceOnUse">
      <stop offset="0" stop-color="#f0b61b"/>
      <stop offset=".4" stop-color="#efb31c"/>
      <stop offset=".6" stop-color="#eaaa1f"/>
      <stop offset=".9" stop-color="#e39a24"/>
      <stop offset="1" stop-color="#dd8d28"/>
    </linearGradient>
    <linearGradient id="linear-gradient-3" x1="455.2" y1="682" x2="504.7" y2="682" gradientTransform="translate(0 792) scale(1 -1)" gradientUnits="userSpaceOnUse">
      <stop offset="0" stop-color="#f0b61b"/>
      <stop offset=".4" stop-color="#efb31c"/>
      <stop offset=".6" stop-color="#eaaa1f"/>
      <stop offset=".9" stop-color="#e39a24"/>
      <stop offset="1" stop-color="#dd8d28"/>
    </linearGradient>
  </defs>
  <!-- Generator: Adobe Illustrator 28.6.0, SVG Export Plug-In . SVG Version: 1.2.0 Build 709)  -->
  <g>
    <g id="Layer_1">
      <g>
        <path d="M53.7,411.6c0-1.2,1-2.2,2.2-2.2h65.1c1.2,0,2.2,1,2.2,2.2v2.7c0,1.2-1,2.2-2.2,2.2h-59.2v44.6h51.4c1.2,0,2.2,1,2.2,2.2v2.7c0,1.2-1,2.2-2.2,2.2h-51.4v48h59.2c1.2,0,2.2,1,2.2,2.2v2.7c0,1.2-1,2.2-2.2,2.2H55.9c-1.2,0-2.2-1-2.2-2.2v-109.4Z"/>
        <path d="M150.5,411.6c0-1.2,1-2.2,2.2-2.2h3.7c1,0,1.9,1,1.9,2.2v104.6h51.7c1.9,0,2.2,1,2.2,2.2v2.9c0,1.2-1,1.7-2.2,1.7h-57.3c-1.2,0-2.2-1-2.2-2.2v-109.2Z"/>
        <path d="M230,411.6c0-1.2,1-2.2,2.2-2.2h65.1c1.2,0,2.2,1,2.2,2.2v2.7c0,1.2-1,2.2-2.2,2.2h-59.7v44.6h51.4c1.2,0,2.2,1,2.2,2.2v2.7c0,1.2-1,2.2-2.2,2.2h-51.4v48h59.2c1.2,0,2.2,1,2.2,2.2v2.7c0,1.2-1,2.2-2.2,2.2h-65.1c-1.2,0-2.2-1-2.2-2.2v-109.4h.5Z"/>
        <path d="M376.7,408c16.6,0,28.8,5.6,39.2,15.1.7.7,1,2.2.2,2.9l-2.7,2.7c-1,1-1.7.7-2.7-.2-9.3-8.3-21-13.2-34.1-13.2-28.3,0-50.5,23.2-50.5,51.2s22.2,50.9,50.5,50.9,24.4-5.6,34.1-13.6c1-.7,1.9-.7,2.7-.2l2.7,2.7c.7.7.7,1.9,0,2.7-11,10.7-25.1,15.6-39.5,15.6-32.4,0-58.7-25.6-58.7-58.3.2-32.2,26.3-58.3,58.7-58.3Z"/>
        <path d="M459.8,416.5h-31c-1.7,0-2.2-1-2.2-2.4v-2.4c0-1.2,1-2.2,2.2-2.2h69.7c1.2,0,2.2,1,2.2,2.2v2.7c0,1.2-.7,2.2-2.2,2.2h-31.2v104.3c0,1.2-1,2.2-2.7,2.2h-2.9c-1.2,0-2.2-1-2.2-2.2v-104.3h.2Z"/>
        <path d="M519,411.6c0-1.2.7-2.2,2.2-2.2h40.2c19.7,0,36.1,14.9,36.1,34.6s-11.5,29.5-26.8,33.9l23.6,41.9c.7,1.2.5,2.9-1.2,2.9h-5.1c-1.2,0-1.7-.5-2.2-1.5l-23.4-42.4c-2.2.2-3.9.2-6.1.2h-29.7v41.7c0,1.2-1,2.2-2.7,2.2h-2.9c-1.2,0-2.2-1-2.2-2.2v-109.2h.2ZM561,472.6c15.6,0,28.8-12.2,28.8-28.3s-13.2-27.3-28.8-27.3h-34.1v55.3h34.1v.2Z"/>
        <path d="M624.3,411.6c0-1.2,1-2.2,2.2-2.2h3.7c1.2,0,2.2,1,2.2,2.2v109.2c0,1.2-1.2,2.2-2.2,2.2h-3.4c-1.2,0-2.2-1-2.2-2.2v-109.2h-.2Z"/>
        <path d="M717,408c16.6,0,28.8,5.6,39.2,15.1.7.7,1,2.2.2,2.9l-2.7,2.7c-1,1-1.7.7-2.7-.2-9.3-8.3-21-13.2-34.1-13.2-28.3,0-50.5,23.2-50.5,51.2s22.2,50.9,50.5,50.9,24.4-5.6,34.1-13.6c1-.7,1.9-.7,2.7-.2l2.7,2.7c.7.7.7,1.9,0,2.7-11,10.7-25.1,15.6-39.5,15.6-32.4,0-58.7-25.6-58.7-58.3.2-32.2,26.3-58.3,58.7-58.3Z"/>
        <path d="M114.2,553.5c19.5,0,33.9,6.1,47,18,1.7,1.5,1.7,3.9.2,5.4l-15.1,15.8c-1.5,1.5-3.4,1.5-4.9,0-7.3-6.3-16.8-10-26.3-10-21.9,0-38,18.3-38,40s16.3,39.5,38.3,39.5,19-3.4,26.1-9.3c1.5-1.2,3.9-1.2,5.1.2l15.1,16.1c1.5,1.5,1.2,3.9-.2,5.4-13.2,12.9-30,18.8-47.3,18.8-39,0-70.2-31-70.2-69.7,0-39,31.2-70.2,70.2-70.2Z"/>
        <path d="M184.6,559.1c0-1.9,1.7-3.7,3.7-3.7h23.4c1.9,0,3.7,1.7,3.7,3.7v128.7c0,1.9-1.7,3.7-3.7,3.7h-23.4c-1.9,0-3.7-1.7-3.7-3.7v-128.7Z"/>
        <path d="M266.3,583.9h-27.8c-2.2,0-3.7-1.7-3.7-3.7v-21.2c0-1.9,1.5-3.7,3.7-3.7h86.3c2.2,0,3.7,1.7,3.7,3.7v21.2c0,1.9-1.5,3.7-3.7,3.7h-27.8v103.8c0,1.9-1.7,3.7-3.7,3.7h-23.4c-1.9,0-3.7-1.7-3.7-3.7v-103.8h0Z"/>
        <path d="M347.9,559.1c0-1.9,1.7-3.7,3.7-3.7h23.4c1.9,0,3.7,1.7,3.7,3.7v128.7c0,1.9-1.7,3.7-3.7,3.7h-23.4c-1.9,0-3.7-1.7-3.7-3.7v-128.7Z"/>
        <path d="M399.9,684.4l51.7-99.9v-.5h-42.4c-1.9,0-3.7-1.7-3.7-3.7v-21.2c0-1.9,1.7-3.7,3.7-3.7h82.6c1.9,0,3.7,1.7,3.7,3.7v2.4l-50,100.9v.5h42.4c2.2,0,3.7,1.7,3.7,3.7v21.2c0,1.9-1.5,3.7-3.7,3.7h-84.3c-1.9,0-3.7-1.7-3.7-3.7v-3.4Z"/>
        <path d="M517.6,559.1c0-1.9,1.5-3.7,3.7-3.7h80.4c2.2,0,3.7,1.7,3.7,3.7v21.2c0,1.9-1.5,3.7-3.7,3.7h-53.9v24.1h44.4c1.9,0,3.7,1.7,3.7,3.7v21.2c0,2.2-1.7,3.7-3.7,3.7h-44.4v26.3h53.9c2.2,0,3.7,1.7,3.7,3.7v21.2c0,1.9-1.5,3.7-3.7,3.7h-80.4c-2.2,0-3.7-1.7-3.7-3.7v-128.7Z"/>
        <path d="M631.4,556.9c0-1.9,1.7-3.4,3.7-3.4h4.9l77.5,74.6h.2v-69c0-1.9,1.5-3.7,3.7-3.7h23.4c1.9,0,3.7,1.7,3.7,3.7v130.9c0,1.9-1.7,3.4-3.7,3.4h-3.2c-.5,0-2.2-.5-2.4-1l-76.8-77.3h-.2v72.6c0,1.9-1.5,3.7-3.7,3.7h-23.2c-1.9,0-3.7-1.7-3.7-3.7l-.2-130.9Z"/>
      </g>
      <g>
        <polygon class="cls-3" points="425.7 71.9 296.8 232.7 376 232.7 376 358.7 504.7 197.6 425.7 197.6 425.7 71.9"/>
        <rect class="cls-2" x="455.2" y="146.4" width="49.5" height="23.2"/>
        <rect class="cls-1" x="455.2" y="98.4" width="49.5" height="23.2"/>
      </g>
    </g>
  </g>
</svg>