<?xml version="1.0" encoding="utf-8"?>
<!-- Generator: Adobe Illustrator 27.2.0, SVG Export Plug-In . SVG Version: 6.00 Build 0)  -->
<svg version="1.1" id="Layer_1" xmlns="http://www.w3.org/2000/svg" xmlns:xlink="http://www.w3.org/1999/xlink" x="0px" y="0px"
	 viewBox="0 0 792 612" style="enable-background:new 0 0 792 612;" xml:space="preserve">
<style type="text/css">
	.st0{fill:url(#SVGID_1_);}
	.st1{fill:url(#SVGID_00000021120636450210780560000016698975595434446010_);}
	.st2{fill:url(#SVGID_00000134242359994015045940000005072926020632248209_);}
</style>
<g>
	<g>
		<path d="M287.6,232c0-0.6,0.5-1.1,1.1-1.1h35.1c0.6,0,1.1,0.5,1.1,1.1v1.5c0,0.6-0.5,1.1-1.1,1.1h-32v24.2h27.7
			c0.6,0,1.1,0.5,1.1,1.1v1.5c0,0.6-0.5,1.1-1.1,1.1h-27.7v25.9h32c0.6,0,1.1,0.5,1.1,1.1v1.4c0,0.6-0.5,1.1-1.1,1.1h-35.1
			c-0.6,0-1.1-0.5-1.1-1.1V232z"/>
		<path d="M340,232c0-0.6,0.5-1.1,1.1-1.1h1.9c0.5,0,1,0.5,1,1.1v56.4H372c1,0,1.1,0.5,1.1,1.1v1.6c0,0.6-0.5,1-1.1,1h-30.9
			c-0.6,0-1.1-0.5-1.1-1.1V232z"/>
		<path d="M382.8,232c0-0.6,0.5-1.1,1.1-1.1H419c0.6,0,1.1,0.5,1.1,1.1v1.5c0,0.6-0.5,1.1-1.1,1.1h-32v24.2h27.7
			c0.6,0,1.1,0.5,1.1,1.1v1.5c0,0.6-0.5,1.1-1.1,1.1H387v25.9h32c0.6,0,1.1,0.5,1.1,1.1v1.4c0,0.6-0.5,1.1-1.1,1.1h-35.1
			c-0.6,0-1.1-0.5-1.1-1.1V232z"/>
		<path d="M462.1,230c8.9,0,15.6,3,21.3,8.1c0.4,0.4,0.5,1.1,0.1,1.6l-1.4,1.5c-0.5,0.5-1,0.4-1.5-0.1c-5-4.5-11.3-7.2-18.5-7.2
			c-15.3,0-27.3,12.5-27.3,27.7c0,15.1,12,27.5,27.3,27.5c7.5,0,13.2-3,18.5-7.3c0.5-0.4,1-0.4,1.4-0.2l1.5,1.5c0.4,0.4,0.4,1,0,1.5
			c-5.9,5.8-13.6,8.5-21.4,8.5c-17.5,0-31.7-13.8-31.7-31.4C430.5,244.1,444.6,230,462.1,230z"/>
		<path d="M507,234.6h-16.7c-0.9,0-1.1-0.5-1.1-1.3V232c0-0.7,0.5-1.1,1.1-1.1h37.6c0.7,0,1.1,0.5,1.1,1.1v1.5
			c0,0.6-0.4,1.1-1.1,1.1h-16.8V291c0,0.6-0.5,1.1-1.4,1.1h-1.6c-0.6,0-1.1-0.5-1.1-1.1V234.6z"/>
		<path d="M539,232c0-0.6,0.4-1.1,1.1-1.1h21.7c10.7,0,19.5,8.1,19.5,18.7c0,8.8-6.1,15.9-14.4,18.3l12.8,22.7
			c0.4,0.7,0.3,1.6-0.6,1.6h-2.7c-0.6,0-1-0.3-1.2-0.8l-12.7-22.9c-1.1,0.1-2.1,0.1-3.2,0.1h-16.1V291c0,0.6-0.5,1.1-1.4,1.1h-1.6
			c-0.6,0-1.1-0.5-1.1-1.1V232z M561.7,264.8c8.4,0,15.5-6.6,15.5-15.2c0-8.3-7.1-14.7-15.6-14.7h-18.4v29.9H561.7z"/>
		<path d="M595.9,232c0-0.6,0.5-1.1,1.1-1.1h1.9c0.6,0,1.1,0.5,1.1,1.1v59c0,0.7-0.6,1.1-1.2,1.1H597c-0.6,0-1.1-0.5-1.1-1.1V232z"
			/>
		<path d="M645.9,230c8.9,0,15.6,3,21.3,8.1c0.4,0.4,0.5,1.1,0.1,1.6l-1.4,1.5c-0.5,0.5-1,0.4-1.5-0.1c-5-4.5-11.3-7.2-18.5-7.2
			c-15.3,0-27.3,12.5-27.3,27.7c0,15.1,12,27.5,27.3,27.5c7.5,0,13.2-3,18.5-7.3c0.5-0.4,1-0.4,1.4-0.2l1.5,1.5c0.4,0.4,0.4,1,0,1.5
			c-5.9,5.8-13.6,8.5-21.4,8.5c-17.5,0-31.7-13.8-31.7-31.4C614.3,244.1,628.4,230,645.9,230z"/>
		<path d="M320.3,308.6c10.5,0,18.3,3.3,25.4,9.8c0.9,0.8,0.9,2.1,0.1,2.9l-8.2,8.5c-0.7,0.7-1.9,0.7-2.6,0c-3.9-3.5-9-5.4-14.2-5.4
			c-11.9,0-20.6,9.9-20.6,21.6c0,11.7,8.8,21.3,20.7,21.3c4.9,0,10.3-1.8,14.1-5c0.7-0.6,2.1-0.6,2.7,0.1l8.2,8.7
			c0.7,0.7,0.6,2.1-0.1,2.8c-7.1,6.9-16.2,10.2-25.5,10.2c-21,0-37.9-16.7-37.9-37.7C282.3,325.5,299.3,308.6,320.3,308.6z"/>
		<path d="M358.4,311.6c0-1,0.9-2,2-2H373c1.1,0,2,0.9,2,2v69.5c0,1-0.9,2-2,2h-12.6c-1,0-2-0.9-2-2V311.6z"/>
		<path d="M402.5,325h-15c-1.2,0-2-0.9-2-2v-11.5c0-1,0.8-2,2-2h46.6c1.2,0,2,0.9,2,2V323c0,1-0.8,2-2,2h-15v56.1c0,1-0.9,2-2,2
			h-12.6c-1,0-2-0.9-2-2V325z"/>
		<path d="M446.6,311.6c0-1,0.9-2,2-2h12.6c1,0,2,0.9,2,2v69.5c0,1-0.9,2-2,2h-12.6c-1,0-2-0.9-2-2V311.6z"/>
		<path d="M474.6,379.2l27.9-54V325h-22.9c-1,0-2-0.9-2-2v-11.5c0-1,0.9-2,2-2h44.6c1.1,0,2,0.9,2,2v1.4l-27,54.5v0.2h22.9
			c1.2,0,2,0.9,2,2v11.5c0,1-0.8,2-2,2h-45.6c-1,0-2-0.9-2-2V379.2z"/>
		<path d="M538.2,311.6c0-1,0.8-2,2-2h43.5c1.2,0,2,0.9,2,2V323c0,1-0.8,2-2,2h-29.1v13h24c1,0,2,0.9,2,2v11.4c0,1.2-0.9,2-2,2h-24
			v14.2h29.1c1.2,0,2,0.9,2,2v11.5c0,1-0.8,2-2,2h-43.5c-1.2,0-2-0.9-2-2V311.6z"/>
		<path d="M599.6,310.4c0-1,0.9-1.9,2-1.9h2.6l41.9,40.3h0.1v-37.3c0-1,0.8-2,2-2h12.6c1,0,2,0.9,2,2v70.7c0,1.1-0.9,1.9-2,1.9h-1.7
			c-0.3,0-1.2-0.3-1.4-0.5L616.3,342h-0.1v39.2c0,1-0.8,2-2,2h-12.5c-1,0-2-0.9-2-2L599.6,310.4z"/>
	</g>
</g>
<g>
	<linearGradient id="SVGID_1_" gradientUnits="userSpaceOnUse" x1="126.6398" y1="301.2803" x2="238.1568" y2="301.2803">
		<stop  offset="0" style="stop-color:#F0B61B"/>
		<stop  offset="0.3646" style="stop-color:#EFB31C"/>
		<stop  offset="0.6314" style="stop-color:#EAAA1F"/>
		<stop  offset="0.8663" style="stop-color:#E39A24"/>
		<stop  offset="1" style="stop-color:#DD8D28"/>
	</linearGradient>
	<polygon class="st0" points="195.7,224.3 126.6,310.7 169,310.7 169,378.2 238.2,291.9 195.7,291.9 	"/>
	
		<linearGradient id="SVGID_00000058557281431621006700000012792842573932078527_" gradientUnits="userSpaceOnUse" x1="211.5981" y1="270.5429" x2="238.1568" y2="270.5429">
		<stop  offset="0" style="stop-color:#F0B61B"/>
		<stop  offset="0.3654" style="stop-color:#EFB31C"/>
		<stop  offset="0.6317" style="stop-color:#EAAA1F"/>
		<stop  offset="0.8659" style="stop-color:#E39A24"/>
		<stop  offset="1" style="stop-color:#DD8D28"/>
	</linearGradient>
	
		<rect x="211.6" y="264.4" style="fill:url(#SVGID_00000058557281431621006700000012792842573932078527_);" width="26.6" height="12.4"/>
	
		<linearGradient id="SVGID_00000020380087516304953300000015947013720439655866_" gradientUnits="userSpaceOnUse" x1="211.5981" y1="244.8719" x2="238.1568" y2="244.8719">
		<stop  offset="0" style="stop-color:#F0B61B"/>
		<stop  offset="0.3654" style="stop-color:#EFB31C"/>
		<stop  offset="0.6317" style="stop-color:#EAAA1F"/>
		<stop  offset="0.8659" style="stop-color:#E39A24"/>
		<stop  offset="1" style="stop-color:#DD8D28"/>
	</linearGradient>
	
		<rect x="211.6" y="238.7" style="fill:url(#SVGID_00000020380087516304953300000015947013720439655866_);" width="26.6" height="12.4"/>
</g>
</svg>
